# xmcd
# 
# Track frame offsets:
#     150
#     19304
#     39525
#     57542
#     72104
#     88452
#     105480
#     123177
#     140563
#     155755
#     174562
#     189337
# 
# Disc length: 2764
# 
# Revision: 0
# Processed by: cddbd v1.5.2PL0 Copyright (c) Steve Scherf et al.
# Submitted via: fre:ac v1.0.31
# 
DISCID=aa0aca0c
DTITLE=rekkorder - Breaking Silence
DYEAR=2016
DGENRE=Alternative Rock
TTITLE0=Hello
TTITLE1=The Right Way
TTITLE2=Locked
TTITLE3=New Day
TTITLE4=Leave
TTITLE5=October
TTITLE6=Upside Down
TTITLE7=Save Whats Left
TTITLE8=Nephilim
TTITLE9=Sound Of Light
TTITLE10=Heat
TTITLE11=Public Enemy
EXTD=
EXTT0=
EXTT1=
EXTT2=
EXTT3=
EXTT4=
EXTT5=
EXTT6=
EXTT7=
EXTT8=
EXTT9=
EXTT10=
EXTT11=
PLAYORDER=
